<svg id="Calque_1" data-name="Calque 1" xmlns="http://www.w3.org/2000/svg" viewBox="0 0 1000 1000">
  <defs>
    <style>
      .cls-1 {
        fill: #99e600;
      }

      .cls-2 {
        fill: #ea003e;
      }

      .cls-3 {
        fill: #00b6d9;
      }
    </style>
  </defs>
  <path class="cls-1" d="M448.21,648.34l-240.96,106.53c-64.42,28.48-136.86-18.71-136.86-89.14v-331.43c0-71.91,75.25-119.06,139.97-87.71l239.98,116.3c-59.19,20.6-101.79,76.95-101.79,143.11s41.58,121.14,99.67,142.35Z"/>
  <path class="cls-2" d="M929.61,334.29v331.43c0,70.44-72.44,117.62-136.86,89.14l-240.96-106.53c58.13-21.21,99.71-77.03,99.71-142.35s-42.6-122.51-101.83-143.07l239.98-116.33c64.72-31.36,139.97,15.79,139.97,87.71Z"/>
  <path class="cls-3" d="M613.63,505.99c0,57.37-42.57,104.82-97.82,112.47-5.15.76-10.45,1.14-15.79,1.14s-10.68-.38-15.87-1.14c-55.25-7.69-97.74-55.1-97.74-112.47s44.19-106.68,101.04-112.93c4.13-.45,8.33-.68,12.57-.68s8.45.23,12.57.68c56.8,6.25,101.04,54.42,101.04,112.93Z"/>
</svg>